<svg xmlns="http://www.w3.org/2000/svg" xmlns:xlink="http://www.w3.org/1999/xlink" viewBox="0 0 608.73 1514.23"><defs><style>.cls-1,.cls-11,.cls-2{fill:none;}.cls-11,.cls-2{stroke:#d8d8d8;stroke-miterlimit:10;}.cls-2{stroke-width:2.67px;}.cls-3{clip-path:url(#clip-path);}.cls-4{font-size:48px;font-family:GothamPro-Light, Gotham Pro;font-weight:300;letter-spacing:-0.01em;}.cls-12,.cls-4{fill:#fff;}.cls-5{letter-spacing:0em;}.cls-6{letter-spacing:-0.03em;}.cls-7{letter-spacing:0em;}.cls-8{fill-opacity:0;}.cls-10,.cls-12,.cls-13,.cls-14,.cls-15,.cls-17,.cls-18,.cls-19,.cls-20,.cls-21,.cls-22,.cls-23,.cls-24,.cls-8,.cls-9{fill-rule:evenodd;}.cls-9{fill:#d8d8d8;}.cls-10{fill:#16a085;}.cls-11{stroke-width:5.33px;}.cls-13{fill:#9bbb59;}.cls-14{fill:#107863;}.cls-15{fill:#76923c;}.cls-16{clip-path:url(#clip-path-2);}.cls-17{fill:#f39c12;}.cls-18{fill:#2980b9;}.cls-19{fill:#c0392b;}.cls-20{fill:#2c3f50;}.cls-21{fill:#ba7509;}.cls-22{fill:#1e608a;}.cls-23{fill:#8f2a20;}.cls-24{fill:#212f3c;}</style><clipPath id="clip-path" transform="translate(-385.26)"><rect class="cls-1" y="0.01" width="1280" height="720"/></clipPath><clipPath id="clip-path-2" transform="translate(-385.26)"><rect class="cls-1" y="505.32" width="1280" height="720"/></clipPath></defs><title>Asset 1</title><g id="Layer_2" data-name="Layer 2"><g id="Layer_1-2" data-name="Layer 1"><text x="-385.26"/><path class="cls-2" d="M640,1079.6v131.15" transform="translate(-385.26)"/><g class="cls-3"><text class="cls-4" transform="translate(100.45 194.66)">L<tspan class="cls-5" x="29.23" y="0">o</tspan><tspan class="cls-6" x="59.95" y="0">r</tspan><tspan class="cls-7" x="77.95" y="0">em ipsum</tspan></text><path class="cls-8" d="M463.78,160.84H816.22v38.78H463.78Z" transform="translate(-385.26)"/><path class="cls-8" d="M640,220.71V351.85" transform="translate(-385.26)"/><path class="cls-2" d="M640,220.71V351.85" transform="translate(-385.26)"/><path class="cls-9" d="M653.86,207.19,640,223.55l-13.86-16.36Z" transform="translate(-385.26)"/><path class="cls-10" d="M634.06,359.43h0a5.94,5.94,0,0,1,5.94-5.94h0a5.94,5.94,0,0,1,5.94,5.94h0a5.94,5.94,0,0,1-5.94,5.94h0A5.94,5.94,0,0,1,634.06,359.43Z" transform="translate(-385.26)"/><path class="cls-11" d="M634.06,359.43h0a5.94,5.94,0,0,1,5.94-5.94h0a5.94,5.94,0,0,1,5.94,5.94h0a5.94,5.94,0,0,1-5.94,5.94h0A5.94,5.94,0,0,1,634.06,359.43Z" transform="translate(-385.26)"/><path class="cls-8" d="M579,361.41h55.09" transform="translate(-385.26)"/><path class="cls-2" d="M579,361.41h55.09" transform="translate(-385.26)"/><path class="cls-10" d="M467,306.06h110.7V416.75H467Z" transform="translate(-385.26)"/><path class="cls-12" d="M538.16,358.56h0a.76.76,0,0,0,.71.72.78.78,0,0,0,.77-.72h-.06a14.27,14.27,0,0,0-14.25-14.31l-.06-.06a.78.78,0,0,0-.71.78.76.76,0,0,0,.71.71h0A12.87,12.87,0,0,1,538.16,358.56Z" transform="translate(-385.26)"/><path class="cls-12" d="M512.54,339.73a4.23,4.23,0,0,0-3-1.25,4.14,4.14,0,0,0-1.66.36,4.24,4.24,0,0,0-2.68,3.92v19.72L500.71,367a4.31,4.31,0,0,0,0,6.06l10.05,10a4.32,4.32,0,0,0,3,1.24,4.22,4.22,0,0,0,3-1.24l4.52-4.52h19.73A4.2,4.2,0,0,0,545,376a4.27,4.27,0,0,0-.89-4.69Zm6.78,36.82-4.52,4.52a1.43,1.43,0,0,1-1,.41,1.53,1.53,0,0,1-1-.41l-10-10a1.5,1.5,0,0,1-.42-1,1.41,1.41,0,0,1,.42-1l4.51-4.51h0l12.07,12.05Zm2-.83c-.24,0-.42.12-.66.12L508,363.13c0-.24.11-.42.11-.65V345.25l30.49,30.47Zm21-.89a1.5,1.5,0,0,1-1.31.89h-.48l-32.51-32.49v-.47a1.48,1.48,0,0,1,.9-1.31,1.63,1.63,0,0,1,.53-.12,1.68,1.68,0,0,1,1,.42l31.56,31.54A1.37,1.37,0,0,1,542.38,374.83Z" transform="translate(-385.26)"/><path class="cls-12" d="M525.26,341.33h0a17.23,17.23,0,0,1,17.22,17.22h0a1.43,1.43,0,1,0,2.85,0h0a20,20,0,0,0-20-20.07h-.06a1.43,1.43,0,1,0,0,2.85Z" transform="translate(-385.26)"/><path class="cls-8" d="M640,366.28V497.43" transform="translate(-385.26)"/><path class="cls-2" d="M640,366.28V497.43" transform="translate(-385.26)"/><path class="cls-13" d="M634.06,505h0a5.94,5.94,0,0,1,5.94-5.94h0a5.94,5.94,0,0,1,5.94,5.94h0a5.94,5.94,0,0,1-5.94,5.93h0A5.94,5.94,0,0,1,634.06,505Z" transform="translate(-385.26)"/><path class="cls-11" d="M634.06,505h0a5.94,5.94,0,0,1,5.94-5.94h0a5.94,5.94,0,0,1,5.94,5.94h0a5.94,5.94,0,0,1-5.94,5.93h0A5.94,5.94,0,0,1,634.06,505Z" transform="translate(-385.26)"/><path class="cls-8" d="M645.94,507H701" transform="translate(-385.26)"/><path class="cls-2" d="M645.94,507H701" transform="translate(-385.26)"/><path class="cls-13" d="M701,451.64h110.7V562.33H701Z" transform="translate(-385.26)"/><path class="cls-8" d="M640,510.94V720" transform="translate(-385.26)"/><path class="cls-2" d="M640,510.94V720" transform="translate(-385.26)"/><path class="cls-12" d="M765.71,494.75a63.06,63.06,0,0,0-25.38,0,1.6,1.6,0,0,0-1.15,1,32.26,32.26,0,0,0,0,20.55,1.58,1.58,0,0,0,1.15,1,62.12,62.12,0,0,0,25.38,0,1.59,1.59,0,0,0,1.16-1,32.26,32.26,0,0,0,0-20.55A1.61,1.61,0,0,0,765.71,494.75Zm-.31,21.09a60.74,60.74,0,0,1-24.76,0,30.77,30.77,0,0,1,0-19.57,60.74,60.74,0,0,1,24.76,0A30.63,30.63,0,0,1,765.4,515.84Z" transform="translate(-385.26)"/><path class="cls-12" d="M779.2,491.16a3.12,3.12,0,0,0-2.65-2.37,168.84,168.84,0,0,0-40.85,0,3.12,3.12,0,0,0-2.65,2.37,64.64,64.64,0,0,0,0,30.11,3.14,3.14,0,0,0,2.65,2.37c3.27.38,6.56.69,9.83.9-.18.1-.28.2-.28.33,0,.85,4.86,1.55,10.89,1.55s10.86-.7,10.86-1.55c0-.13-.1-.23-.28-.33,3.29-.21,6.56-.52,9.83-.9a3.14,3.14,0,0,0,2.65-2.37A64.64,64.64,0,0,0,779.2,491.16Zm-3,29.38a165,165,0,0,1-40.1,0,60.38,60.38,0,0,1,0-28.66,166,166,0,0,1,40.1,0A61.42,61.42,0,0,1,776.19,520.54Z" transform="translate(-385.26)"/><path class="cls-12" d="M772.45,500a2.33,2.33,0,0,0,2.32-2.35,2.31,2.31,0,0,0-2.32-2.32,2.33,2.33,0,0,0-2.34,2.32A2.36,2.36,0,0,0,772.45,500Zm0-3.12a.79.79,0,0,1,0,1.57.79.79,0,1,1,0-1.57Z" transform="translate(-385.26)"/><path class="cls-12" d="M774,515.55h-4.66a.77.77,0,1,0,0,1.54H774a.77.77,0,1,0,0-1.54Z" transform="translate(-385.26)"/><path class="cls-12" d="M775.54,510.89h-4.66a.78.78,0,0,0,0,1.55h4.66a.78.78,0,1,0,0-1.55Z" transform="translate(-385.26)"/><path class="cls-12" d="M775.54,506.23h-4.66a.78.78,0,0,0-.77.78.79.79,0,0,0,.77.77h4.66a.79.79,0,0,0,.79-.77A.78.78,0,0,0,775.54,506.23Z" transform="translate(-385.26)"/><path class="cls-12" d="M752.25,499.68l-7.13.57a1.11,1.11,0,0,0-.91.85l-.48,4.33a.75.75,0,0,0,.74.8.8.8,0,0,0,.8-.8l.26-2.94a1.08,1.08,0,0,1,.87-.85l5.85-.41a.8.8,0,0,0,.77-.8A.77.77,0,0,0,752.25,499.68Z" transform="translate(-385.26)"/><path class="cls-8" d="M640,0V79.18" transform="translate(-385.26)"/><path class="cls-14" d="M467,407.63h110.7v9.12H467Z" transform="translate(-385.26)"/><path class="cls-15" d="M700.78,553.21H811.47v9.12H700.78Z" transform="translate(-385.26)"/></g><g class="cls-16"><path class="cls-8" d="M640,505.32V636.46" transform="translate(-385.26)"/><path class="cls-2" d="M640,505.32V636.46" transform="translate(-385.26)"/><path class="cls-17" d="M634.06,644h0A5.94,5.94,0,0,1,640,638.1h0a5.94,5.94,0,0,1,5.94,5.94h0A5.94,5.94,0,0,1,640,650h0A5.94,5.94,0,0,1,634.06,644Z" transform="translate(-385.26)"/><path class="cls-11" d="M634.06,644h0A5.94,5.94,0,0,1,640,638.1h0a5.94,5.94,0,0,1,5.94,5.94h0A5.94,5.94,0,0,1,640,650h0A5.94,5.94,0,0,1,634.06,644Z" transform="translate(-385.26)"/><path class="cls-8" d="M579,646h55.09" transform="translate(-385.26)"/><path class="cls-2" d="M579,646h55.09" transform="translate(-385.26)"/><path class="cls-17" d="M467,590.67h110.7V701.36H467Z" transform="translate(-385.26)"/><path class="cls-8" d="M640,650.89V782" transform="translate(-385.26)"/><path class="cls-2" d="M640,650.89V782" transform="translate(-385.26)"/><path class="cls-18" d="M634.06,789.61h0a5.94,5.94,0,0,1,5.94-5.93h0a5.94,5.94,0,0,1,5.94,5.93h0a5.94,5.94,0,0,1-5.94,5.94h0A5.94,5.94,0,0,1,634.06,789.61Z" transform="translate(-385.26)"/><path class="cls-11" d="M634.06,789.61h0a5.94,5.94,0,0,1,5.94-5.93h0a5.94,5.94,0,0,1,5.94,5.93h0a5.94,5.94,0,0,1-5.94,5.94h0A5.94,5.94,0,0,1,634.06,789.61Z" transform="translate(-385.26)"/><path class="cls-8" d="M645.94,791.59H701" transform="translate(-385.26)"/><path class="cls-2" d="M645.94,791.59H701" transform="translate(-385.26)"/><path class="cls-18" d="M701,736.25h110.7V846.94H701Z" transform="translate(-385.26)"/><path class="cls-8" d="M640,795.19V926.33" transform="translate(-385.26)"/><path class="cls-2" d="M640,795.19V926.33" transform="translate(-385.26)"/><path class="cls-19" d="M634.06,933.91h0A5.94,5.94,0,0,1,640,928h0a5.94,5.94,0,0,1,5.94,5.94h0a5.94,5.94,0,0,1-5.94,5.94h0A5.94,5.94,0,0,1,634.06,933.91Z" transform="translate(-385.26)"/><path class="cls-11" d="M634.06,933.91h0A5.94,5.94,0,0,1,640,928h0a5.94,5.94,0,0,1,5.94,5.94h0a5.94,5.94,0,0,1-5.94,5.94h0A5.94,5.94,0,0,1,634.06,933.91Z" transform="translate(-385.26)"/><path class="cls-8" d="M579,935.89h55.09" transform="translate(-385.26)"/><path class="cls-2" d="M579,935.89h55.09" transform="translate(-385.26)"/><path class="cls-19" d="M467,880.54h110.7V991.23H467Z" transform="translate(-385.26)"/><path class="cls-8" d="M640,940.76v131.15" transform="translate(-385.26)"/><path class="cls-2" d="M640,940.76v131.15" transform="translate(-385.26)"/><path class="cls-20" d="M634.06,1079.49h0a5.94,5.94,0,0,1,5.94-5.94h0a5.94,5.94,0,0,1,5.94,5.94h0a5.93,5.93,0,0,1-5.94,5.93h0A5.93,5.93,0,0,1,634.06,1079.49Z" transform="translate(-385.26)"/><path class="cls-11" d="M634.06,1079.49h0a5.94,5.94,0,0,1,5.94-5.94h0a5.94,5.94,0,0,1,5.94,5.94h0a5.93,5.93,0,0,1-5.94,5.93h0A5.93,5.93,0,0,1,634.06,1079.49Z" transform="translate(-385.26)"/><path class="cls-8" d="M645.94,1081.47H701" transform="translate(-385.26)"/><path class="cls-2" d="M645.94,1081.47H701" transform="translate(-385.26)"/><path class="cls-20" d="M701,1026.12h110.7v110.69H701Z" transform="translate(-385.26)"/><path class="cls-8" d="M831.18,1026.12H994v48.47H831.18Z" transform="translate(-385.26)"/><path class="cls-8" d="M640,1086.92v138.4" transform="translate(-385.26)"/><path class="cls-2" d="M640,1086.92v138.4" transform="translate(-385.26)"/><path class="cls-12" d="M511,629.91v-4.33a4.26,4.26,0,0,0-8.51,0v4.33a7,7,0,0,0-2.86,5.63,7.11,7.11,0,0,0,2.86,5.64v21.31a4.26,4.26,0,0,0,8.51,0V641.18a7.12,7.12,0,0,0,2.87-5.64A7,7,0,0,0,511,629.91Zm-5.64-4.33a1.38,1.38,0,0,1,1.39-1.39,1.43,1.43,0,0,1,1.39,1.39v3a6.12,6.12,0,0,0-2.78,0Zm2.78,36.91a1.43,1.43,0,0,1-1.39,1.39,1.37,1.37,0,0,1-1.39-1.39v-20a6.12,6.12,0,0,0,2.78,0Zm2.7-25.8a.29.29,0,0,0-.08.24,4.29,4.29,0,0,1-.57,1.06h0a4.79,4.79,0,0,1-.9.9h0a5.39,5.39,0,0,1-1.15.66,4.15,4.15,0,0,1-2.78,0,4,4,0,0,1-1.15-.66h-.08a4.15,4.15,0,0,1-.82-.9h0a4.29,4.29,0,0,1-.57-1.06c0-.08-.08-.16-.08-.24a4.48,4.48,0,0,1-.17-1.15,5.78,5.78,0,0,1,.17-1.22c0-.08.08-.16.08-.25a4.12,4.12,0,0,1,.57-1V633a9.43,9.43,0,0,1,.82-.9h.08a4.11,4.11,0,0,1,1.15-.57,4.15,4.15,0,0,1,2.78,0,5.6,5.6,0,0,1,1.15.57h0a12.72,12.72,0,0,1,.9.9v.08a4.12,4.12,0,0,1,.57,1,.3.3,0,0,0,.08.25,6.48,6.48,0,0,1,.16,1.22A5,5,0,0,1,510.87,636.69Z" transform="translate(-385.26)"/><path class="cls-12" d="M542.23,629.91v-4.33a4.26,4.26,0,0,0-8.51,0v4.33a7,7,0,0,0-2.86,5.63,7.11,7.11,0,0,0,2.86,5.64v21.31a4.26,4.26,0,0,0,8.51,0V641.18a7.12,7.12,0,0,0,2.87-5.64A7,7,0,0,0,542.23,629.91Zm-5.64-4.33a1.43,1.43,0,0,1,1.39-1.39,1.45,1.45,0,0,1,1.47,1.39v3a4.61,4.61,0,0,0-1.47-.16,3.88,3.88,0,0,0-1.39.16Zm2.86,36.91a1.44,1.44,0,0,1-1.47,1.39,1.43,1.43,0,0,1-1.39-1.39v-20a7.27,7.27,0,0,0,1.39.16,9.18,9.18,0,0,0,1.47-.16Zm2.62-25.8c0,.08-.08.16-.08.24a4.31,4.31,0,0,1-.58,1.06h0a4.11,4.11,0,0,1-.81.9h-.09a4.52,4.52,0,0,1-1.06.66,4.71,4.71,0,0,1-1.47.24,3.86,3.86,0,0,1-1.39-.24,5.39,5.39,0,0,1-1.15-.66h0a4.51,4.51,0,0,1-.9-.9h0a4,4,0,0,1-.57-1.06.27.27,0,0,0-.09-.24,5,5,0,0,1-.16-1.15,6.48,6.48,0,0,1,.16-1.22.28.28,0,0,0,.09-.25,3.81,3.81,0,0,1,.57-1V633a10.9,10.9,0,0,1,.9-.9h0a5.6,5.6,0,0,1,1.15-.57,3.86,3.86,0,0,1,1.39-.24,4.71,4.71,0,0,1,1.47.24,4.65,4.65,0,0,1,1.06.57h.09a9.26,9.26,0,0,1,.81.9v.08a4.16,4.16,0,0,1,.58,1c0,.09.08.17.08.25a6.48,6.48,0,0,1,.16,1.22A5,5,0,0,1,542.07,636.69Z" transform="translate(-385.26)"/><path class="cls-12" d="M526.62,646.9V625.58a4.25,4.25,0,0,0-8.49,0V646.9a7.11,7.11,0,0,0-2.86,5.63,7,7,0,0,0,2.86,5.63v4.33a4.25,4.25,0,1,0,8.49,0v-4.33a7,7,0,0,0,2.86-5.63A7.08,7.08,0,0,0,526.62,646.9ZM521,625.58a1.39,1.39,0,0,1,2.78,0v20a6.12,6.12,0,0,0-2.78,0Zm2.78,36.91a1.39,1.39,0,0,1-2.78,0v-3a6.12,6.12,0,0,0,2.78,0Zm2.69-8.73c0,.08-.08.16-.08.24a3.76,3.76,0,0,1-.57,1v.08a4.77,4.77,0,0,1-.9.9h0a4.86,4.86,0,0,1-1.14.57,4,4,0,0,1-2.78,0,4.5,4.5,0,0,1-1.14-.57h0a4.49,4.49,0,0,1-.9-.9V655a3.5,3.5,0,0,1-.57-1c0-.08-.08-.16-.08-.24a5.78,5.78,0,0,1-.17-1.23,4.34,4.34,0,0,1,.17-1.14c0-.08.08-.17.08-.25a4.14,4.14,0,0,1,.57-1.06h0a3.08,3.08,0,0,1,.9-.9h0a5.05,5.05,0,0,1,1.14-.65,4,4,0,0,1,2.78,0,5.53,5.53,0,0,1,1.14.65h0a3.21,3.21,0,0,1,.9.9h0a4.47,4.47,0,0,1,.57,1.06c0,.08.08.17.08.25a4.82,4.82,0,0,1,.16,1.14A6.48,6.48,0,0,1,526.46,653.76Z" transform="translate(-385.26)"/><path class="cls-12" d="M777,806.46a41.65,41.65,0,0,0-12.69-5,31,31,0,0,0,5.22-11.18c1-4.25.64-12.64-3.46-17.87a12.5,12.5,0,0,0-19.42,0c-4.1,5.23-4.49,13.62-3.47,17.87a31,31,0,0,0,5.22,11.18,41.66,41.66,0,0,0-12.68,5,2.73,2.73,0,0,0,1.51,5h38.26a2.73,2.73,0,0,0,1.51-5Zm-14.83-6.74-.44.58c-3.22,3.71-7.52,3.71-10.74,0l-.44-.58a23.24,23.24,0,0,1-4.88-17.28c.73-5.86,4-12,10.69-12s10,6.1,10.68,12A23.07,23.07,0,0,1,762.19,799.72Zm-24.94,9A36.25,36.25,0,0,1,749,804.11l3.42-.73a6.93,6.93,0,0,0,8,0l3.42.73a36.32,36.32,0,0,1,11.71,4.64Z" transform="translate(-385.26)"/><path class="cls-12" d="M545.21,929.53l-7.43-7.44a3,3,0,0,0-2.09-.87H509.5a3,3,0,0,0-2.09.87L500,929.53a2.91,2.91,0,0,0-.88,2.09,2.94,2.94,0,0,0,.74,2l20.52,21.9a2.95,2.95,0,0,0,4.46,0l20.51-21.9a3,3,0,0,0,.75-2A2.91,2.91,0,0,0,545.21,929.53Zm-19.37,2h-6.48l3.24-2.7Zm-2.09-3.65,4-3.38,3,3L527,930.54Zm-5.54,2.7-3.71-3.11,3-3,4,3.38Zm8,2.44-3.64,18.31L519,933Zm1.49,0H535l-10.8,18Zm.4-1.49,3.65-3,3,3Zm1.35-7.3h5.2l-2.83,2.3Zm-6.88,2.7-3.24-2.7h6.48Zm-9.25-.4-2.83-2.3h5.19Zm.07,2,3.64,3h-6.61Zm4.05,4.46,3.58,18-10.8-18Zm.27,15.41L503.29,933h5.27ZM536.64,933h5.26l-14.44,15.41Zm.2-1.49-3.92-3.92,3.38-2.84,6.75,6.76Zm-27.94-6.76,3.37,2.84-3.91,3.92h-6.28Z" transform="translate(-385.26)"/><path class="cls-12" d="M771.11,1075.69v-6.48a14.54,14.54,0,0,0-29.07,0v6.48a4.77,4.77,0,0,0-4.8,4.79v11.26a14.48,14.48,0,0,0,14.49,14.46h9.69a14.48,14.48,0,0,0,14.49-14.46v-11.26A4.77,4.77,0,0,0,771.11,1075.69Zm-25.78-6.48a11.25,11.25,0,1,1,22.49,0v6.48h-3.2v-6.48a8,8,0,0,0-16.09,0v6.48h-3.2Zm17.69,0h0v6.48H750.13v-6.48h0a6.45,6.45,0,0,1,12.89,0Zm9.69,16.06v6.47A11.29,11.29,0,0,1,761.42,1103h-9.69a11.3,11.3,0,0,1-11.29-11.27v-11.26a1.59,1.59,0,0,1,1.6-1.6h29.07a1.59,1.59,0,0,1,1.6,1.6Z" transform="translate(-385.26)"/><path class="cls-12" d="M756.62,1085.28a3.27,3.27,0,0,0-3.27,3.28,15.68,15.68,0,0,0,1.06,4.26c.44,1.25,1,2.13,2.21,2.13s1.68-.88,2.13-2.13a15.68,15.68,0,0,0,1.06-4.26A3.26,3.26,0,0,0,756.62,1085.28Z" transform="translate(-385.26)"/><path class="cls-21" d="M467,692.24h110.7v9.12H467Z" transform="translate(-385.26)"/><path class="cls-22" d="M700.78,837.82H811.47v9.12H700.78Z" transform="translate(-385.26)"/><path class="cls-23" d="M467,982.11h110.7v9.12H467Z" transform="translate(-385.26)"/><path class="cls-24" d="M700.78,1127.61H811.47v9.12H700.78Z" transform="translate(-385.26)"/><text x="-385.26"/></g><path class="cls-9" d="M626.14,1514.23,640,1497.87l13.86,16.36Z" transform="translate(-385.26)"/><path class="cls-8" d="M640,1079.6v131.15" transform="translate(-385.26)"/><path class="cls-19" d="M634.06,1218.33h0a5.94,5.94,0,0,1,5.94-5.94h0a5.94,5.94,0,0,1,5.94,5.94h0a5.93,5.93,0,0,1-5.94,5.93h0A5.93,5.93,0,0,1,634.06,1218.33Z" transform="translate(-385.26)"/><path class="cls-11" d="M634.06,1218.33h0a5.94,5.94,0,0,1,5.94-5.94h0a5.94,5.94,0,0,1,5.94,5.94h0a5.93,5.93,0,0,1-5.94,5.93h0A5.93,5.93,0,0,1,634.06,1218.33Z" transform="translate(-385.26)"/><path class="cls-8" d="M579,1220.31h55.09" transform="translate(-385.26)"/><path class="cls-2" d="M579,1220.31h55.09" transform="translate(-385.26)"/><path class="cls-8" d="M640,1225.18v131.15" transform="translate(-385.26)"/><path class="cls-2" d="M640,1225.18v131.15" transform="translate(-385.26)"/><path class="cls-20" d="M634.06,1363.9h0A5.94,5.94,0,0,1,640,1358h0a5.94,5.94,0,0,1,5.94,5.94h0a5.94,5.94,0,0,1-5.94,5.94h0A5.94,5.94,0,0,1,634.06,1363.9Z" transform="translate(-385.26)"/><path class="cls-11" d="M634.06,1363.9h0A5.94,5.94,0,0,1,640,1358h0a5.94,5.94,0,0,1,5.94,5.94h0a5.94,5.94,0,0,1-5.94,5.94h0A5.94,5.94,0,0,1,634.06,1363.9Z" transform="translate(-385.26)"/><path class="cls-8" d="M645.94,1365.88H701" transform="translate(-385.26)"/><path class="cls-2" d="M645.94,1365.88H701" transform="translate(-385.26)"/><path class="cls-20" d="M701,1310.54h110.7v110.69H701Z" transform="translate(-385.26)"/><path class="cls-8" d="M640,1369.48v131.14" transform="translate(-385.26)"/><path class="cls-2" d="M640,1369.48v131.14" transform="translate(-385.26)"/><path class="cls-12" d="M775.79,1343.86a2,2,0,0,0-.71-.19,1.16,1.16,0,0,0-.67.24l-38,25.28a1.28,1.28,0,0,0-.57,1.19,1.39,1.39,0,0,0,.81,1l9.86,3.95,4.67,8.14a1.33,1.33,0,0,0,1.09.62h0a1.27,1.27,0,0,0,1.1-.62l2.62-4.38,12.29,4.91a1.58,1.58,0,0,0,.42.09,1.79,1.79,0,0,0,.67-.14,1.36,1.36,0,0,0,.62-.91l6.29-37.93A1.28,1.28,0,0,0,775.79,1343.86ZM739.84,1370l29.33-19.52-21.33,22.8a1,1,0,0,0-.34-.24Zm8.95,4.14h0l24-25.61-20.39,31.8Zm19,7L757,1376.8a2.51,2.51,0,0,0-.81-.14l16.67-25.8Z" transform="translate(-385.26)"/><path class="cls-24" d="M700.78,1412.56H811.47v9.12H700.78Z" transform="translate(-385.26)"/><text x="-385.26"/><path class="cls-13" d="M469.87,1165.6h110.7v110.69H469.87Z" transform="translate(-385.26)"/><path class="cls-12" d="M534.55,1208.71a63.06,63.06,0,0,0-25.38,0,1.6,1.6,0,0,0-1.15,1,32.26,32.26,0,0,0,0,20.55,1.58,1.58,0,0,0,1.15,1,62.12,62.12,0,0,0,25.38,0,1.59,1.59,0,0,0,1.16-1,32.26,32.26,0,0,0,0-20.55A1.61,1.61,0,0,0,534.55,1208.71Zm-.31,21.09a60.74,60.74,0,0,1-24.76,0,30.77,30.77,0,0,1,0-19.57,60.74,60.74,0,0,1,24.76,0A30.63,30.63,0,0,1,534.24,1229.8Z" transform="translate(-385.26)"/><path class="cls-12" d="M548,1205.12a3.12,3.12,0,0,0-2.65-2.37,168.84,168.84,0,0,0-40.85,0,3.12,3.12,0,0,0-2.65,2.37,64.64,64.64,0,0,0,0,30.11,3.14,3.14,0,0,0,2.65,2.37c3.27.38,6.56.69,9.83.9-.18.1-.28.2-.28.33,0,.85,4.86,1.55,10.89,1.55s10.86-.7,10.86-1.55c0-.13-.1-.23-.28-.33,3.29-.21,6.56-.52,9.83-.9a3.14,3.14,0,0,0,2.65-2.37A64.64,64.64,0,0,0,548,1205.12Zm-3,29.39a166,166,0,0,1-40.1,0,60.43,60.43,0,0,1,0-28.67,166,166,0,0,1,40.1,0A61.46,61.46,0,0,1,545,1234.51Z" transform="translate(-385.26)"/><path class="cls-12" d="M541.29,1214a2.33,2.33,0,0,0,2.32-2.35,2.31,2.31,0,0,0-2.32-2.32,2.33,2.33,0,0,0-2.34,2.32A2.36,2.36,0,0,0,541.29,1214Zm0-3.12a.79.79,0,0,1,0,1.57.79.79,0,1,1,0-1.57Z" transform="translate(-385.26)"/><path class="cls-12" d="M542.84,1229.51h-4.66a.77.77,0,0,0,0,1.54h4.66a.77.77,0,0,0,0-1.54Z" transform="translate(-385.26)"/><path class="cls-12" d="M544.38,1224.85h-4.66a.78.78,0,0,0,0,1.55h4.66a.78.78,0,1,0,0-1.55Z" transform="translate(-385.26)"/><path class="cls-12" d="M544.38,1220.19h-4.66a.78.78,0,0,0-.77.78.79.79,0,0,0,.77.77h4.66a.79.79,0,0,0,.79-.77A.78.78,0,0,0,544.38,1220.19Z" transform="translate(-385.26)"/><path class="cls-12" d="M521.09,1213.64l-7.13.57a1.11,1.11,0,0,0-.91.85l-.48,4.33a.75.75,0,0,0,.74.8.8.8,0,0,0,.8-.8l.26-2.94a1.08,1.08,0,0,1,.87-.85l5.85-.41a.8.8,0,0,0,.77-.8A.77.77,0,0,0,521.09,1213.64Z" transform="translate(-385.26)"/><path class="cls-15" d="M469.62,1267.17H580.31v9.12H469.62Z" transform="translate(-385.26)"/></g></g></svg>