<svg xmlns="http://www.w3.org/2000/svg" viewBox="0 0 119.49 113.84"><defs><style>.cls-1{fill:#f2f2f2;}.cls-2{fill:none;stroke:#000;stroke-miterlimit:10;}</style></defs><title>Asset 1</title><g id="Layer_2" data-name="Layer 2"><g id="Layer_1-2" data-name="Layer 1"><path class="cls-1" d="M57.86,2.07c1-2.09,2.73-2.09,3.77,0L76.81,32.84a9.09,9.09,0,0,0,6.09,4.42l33.95,4.93c2.31.34,2.83,2,1.16,3.58L93.44,69.72a9.08,9.08,0,0,0-2.32,7.16l5.8,33.81c.39,2.3-1,3.3-3,2.21l-30.36-16a9.08,9.08,0,0,0-7.53,0l-30.36,16c-2.07,1.09-3.44.09-3.05-2.21l5.8-33.81a9.08,9.08,0,0,0-2.32-7.16L1.48,45.77C-.19,44.14.33,42.53,2.64,42.19l34-4.93a9.09,9.09,0,0,0,6.09-4.42Z"/><path class="cls-2" d="M57.86,2.07c1-2.09,2.73-2.09,3.77,0L76.81,32.84a9.09,9.09,0,0,0,6.09,4.42l33.95,4.93c2.31.34,2.83,2,1.16,3.58L93.44,69.72a9.08,9.08,0,0,0-2.32,7.16l5.8,33.81c.39,2.3-1,3.3-3,2.21l-30.36-16a9.08,9.08,0,0,0-7.53,0l-30.36,16c-2.07,1.09-3.44.09-3.05-2.21l5.8-33.81a9.08,9.08,0,0,0-2.32-7.16L1.48,45.77C-.19,44.14.33,42.53,2.64,42.19l34-4.93a9.09,9.09,0,0,0,6.09-4.42Z"/></g></g></svg>